# xmcd
#
# Track frame offsets:
#	150
#	15311
#	28011
#	43293
#	57839
#	73680
#	87452
#	104482
#	119943
#	134007
#	150330
#	166227
#	181576
#	195197
#	209882
#	225721
#
# Disc length: 3281 seconds
#
# Revision: 0
# Processed by: cddbd v1.4PL0 Copyright (c) Steve Scherf et al.
# Submitted via: audiograbber 1.80
#
DISCID=e00ccf10
DTITLE=Seer - Baff
DYEAR=1900
DGENRE=
TTITLE0=Sumajodler
TTITLE1=Baff
TTITLE2=Wonn Scho Donn Scho
TTITLE3=Hoam Zu Der Moam
TTITLE4=Mir Is Nach Dir
TTITLE5=A Wetter Is Immer Und Überall
TTITLE6=Wird Schon Werden
TTITLE7=Der Letzte Vogelfänger
TTITLE8=Koa Ruah
TTITLE9=Hiaz Wirds Miaz
TTITLE10=Herbstjodler
TTITLE11=Koana Dahoam
TTITLE12=Vogelfrei
TTITLE13=Wild's Wasser
TTITLE14=Von Der Weiten
TTITLE15=Alls Hat Sei Zeit
EXTD=
EXTT0=
EXTT1=
EXTT2=
EXTT3=
EXTT4=
EXTT5=
EXTT6=
EXTT7=
EXTT8=
EXTT9=
EXTT10=
EXTT11=
EXTT12=
EXTT13=
EXTT14=
EXTT15=
PLAYORDER=
